<svg width="33" height="34" viewBox="0 0 33 34" fill="none" xmlns="http://www.w3.org/2000/svg">
<path d="M29.3007 6.49909C27.99 4.76934 26.3468 3.31779 24.4674 2.22924C22.3103 0.966174 19.8902 0.217188 17.3956 0.0406221C14.901 -0.135944 12.3991 0.264676 10.0851 1.21128C7.77097 2.15788 5.7071 3.62491 4.0542 5.49808C2.40129 7.37124 1.204 9.59996 0.555571 12.0106C-0.0928539 14.4213 -0.174896 16.9489 0.315831 19.3964C0.806558 21.8439 1.85681 24.1453 3.38476 26.1214C4.91272 28.0974 6.87714 29.6946 9.12498 30.7887C11.3728 31.8828 13.8434 32.4442 16.3442 32.4292C16.6895 32.4292 17.0212 32.4292 17.3732 32.3954C20.2899 32.1995 23.0996 31.2217 25.506 29.5652C27.9125 27.9087 29.8265 25.6349 31.0464 22.9834C32.2662 20.3319 32.7467 17.4011 32.437 14.4999C32.1274 11.5987 31.0392 8.83462 29.2872 6.49909H29.3007Z" fill="#120136"/>
<path d="M31.6835 16.2482C31.6827 20.1371 30.1977 23.8797 27.5306 26.7148C24.8635 29.55 21.2145 31.2647 17.3258 31.5103C17.0076 31.5103 16.6489 31.5103 16.3578 31.5103C14.0073 31.5098 11.6885 30.9696 9.58068 29.9317C7.47282 28.8938 5.6324 27.3859 4.20176 25.5246C2.77111 23.6633 1.78859 21.4986 1.33015 19.1978C0.871712 16.897 0.949656 14.5217 1.55795 12.2558C2.16624 9.98984 3.28858 7.8939 4.83818 6.13005C6.38778 4.36621 8.32311 2.98175 10.4945 2.0837C12.6659 1.18565 15.0151 0.798102 17.3606 0.951024C19.706 1.10395 21.9848 1.79322 24.0206 2.96558C25.7983 3.99801 27.3498 5.37655 28.5831 7.01927C30.6013 9.67374 31.6905 12.9161 31.6835 16.2482Z" fill="white"/>
<g style="mix-blend-mode:luminosity">
<path d="M7.07705 23.0855C7.52194 23.0855 7.88259 22.7255 7.88259 22.2815C7.88259 21.8375 7.52194 21.4775 7.07705 21.4775C6.63217 21.4775 6.27151 21.8375 6.27151 22.2815C6.27151 22.7255 6.63217 23.0855 7.07705 23.0855Z" fill="#120136"/>
</g>
<path d="M23.4791 20.1398C25.1128 20.1398 26.4373 18.818 26.4373 17.1874C26.4373 15.5568 25.1128 14.235 23.4791 14.235C21.8453 14.235 20.5209 15.5568 20.5209 17.1874C20.5209 18.818 21.8453 20.1398 23.4791 20.1398Z" fill="#120136"/>
<path d="M28.5899 7.03277C28.5838 7.81152 28.353 8.57204 27.9253 9.22335C27.4975 9.87466 26.8908 10.3892 26.1778 10.7054C25.4647 11.0217 24.6755 11.1262 23.9045 11.0065C23.1335 10.8869 22.4133 10.5482 21.8301 10.0308C21.2469 9.51337 20.8254 8.83928 20.616 8.08909C20.4065 7.3389 20.418 6.54433 20.6491 5.80049C20.8801 5.05665 21.321 4.39502 21.9189 3.89465C22.5168 3.39429 23.2465 3.07641 24.0206 2.97903C25.8007 4.01074 27.3546 5.38934 28.5899 7.03277Z" fill="#120136"/>
<path d="M12.5805 6.54623C11.7889 6.88263 11.026 7.28257 10.2992 7.74211C9.81471 8.01199 9.39624 8.38581 9.07398 8.83662C8.92359 9.06921 8.84358 9.34017 8.84358 9.61699C8.84358 9.89381 8.92359 10.1647 9.07398 10.3973C9.29863 10.6187 9.56864 10.7888 9.86544 10.8961C10.1622 11.0034 10.4788 11.0453 10.7934 11.0189C11.4586 11.1046 12.1347 11.0376 12.77 10.823C13.2004 10.6108 13.5918 10.3276 13.9276 9.9852L15.2408 8.79609C15.7011 8.3772 16.202 7.80966 15.999 7.22862C15.8954 7.01599 15.7377 6.83419 15.5417 6.70141C15.3457 6.56862 15.1183 6.4895 14.882 6.47192C13.749 6.25045 12.5739 6.45755 11.5854 7.05295" fill="#120136"/>
<path d="M15.3869 31.9751C16.3538 32.0029 17.2964 31.9854 18.2057 31.9228C18.8066 31.9024 19.3457 31.8025 19.7842 31.6303C19.992 31.537 20.1236 31.4012 20.1631 31.2393C20.2027 31.0774 20.1485 30.8963 20.0072 30.7176C19.7781 30.5245 19.489 30.3484 19.1599 30.2015C18.8307 30.0545 18.4693 29.9403 18.1004 29.8665C17.3405 29.6277 16.5462 29.4751 15.7781 29.4204C15.2482 29.4224 14.7535 29.477 14.3148 29.582L12.6206 29.9049C12.0265 30.0192 11.364 30.209 11.5167 30.6064C11.6065 30.7601 11.7635 30.9112 11.972 31.0444C12.1805 31.1777 12.4333 31.2884 12.7049 31.3657C13.9884 31.8166 15.3819 32.0288 16.6143 31.961" fill="#120136"/>
</svg>
