<svg width="651" height="466" viewBox="0 0 651 466" fill="none" xmlns="http://www.w3.org/2000/svg">
<g id="RocketShip">
<g clip-path="url(#clip0)">
<g id="SmallPlanet3">
<g id="Group" opacity="0.7">
<path id="Vector" opacity="0.7" d="M159.117 398.975C163.488 398.975 167.031 395.439 167.031 391.077C167.031 386.715 163.488 383.179 159.117 383.179C154.746 383.179 151.203 386.715 151.203 391.077C151.203 395.439 154.746 398.975 159.117 398.975Z" fill="url(#paint0_linear)"/>
</g>
<path id="Vector_2" opacity="0.2" d="M159.117 398.62C163.291 398.62 166.675 395.243 166.675 391.077C166.675 386.911 163.291 383.533 159.117 383.533C154.943 383.533 151.559 386.911 151.559 391.077C151.559 395.243 154.943 398.62 159.117 398.62Z" fill="black"/>
</g>
<path id="Moon8" d="M116.479 239.942C118.094 239.942 119.404 238.636 119.404 237.023C119.404 235.411 118.094 234.105 116.479 234.105C114.864 234.105 113.554 235.411 113.554 237.023C113.554 238.636 114.864 239.942 116.479 239.942Z" fill="white"/>
<path id="Moon7" d="M325.225 409.351C326.84 409.351 328.15 408.044 328.15 406.432C328.15 404.82 326.84 403.513 325.225 403.513C323.609 403.513 322.3 404.82 322.3 406.432C322.3 408.044 323.609 409.351 325.225 409.351Z" fill="white"/>
<path id="Moon6" d="M201.927 422.944C202.83 422.944 203.562 422.214 203.562 421.313C203.562 420.412 202.83 419.682 201.927 419.682C201.024 419.682 200.293 420.412 200.293 421.313C200.293 422.214 201.024 422.944 201.927 422.944Z" fill="white"/>
<path id="Moon5" d="M563.791 343.963C564.694 343.963 565.426 343.232 565.426 342.332C565.426 341.431 564.694 340.7 563.791 340.7C562.889 340.7 562.157 341.431 562.157 342.332C562.157 343.232 562.889 343.963 563.791 343.963Z" fill="white"/>
<path id="Moon4" d="M470.314 197.447C471.217 197.447 471.949 196.717 471.949 195.816C471.949 194.915 471.217 194.185 470.314 194.185C469.412 194.185 468.68 194.915 468.68 195.816C468.68 196.717 469.412 197.447 470.314 197.447Z" fill="white"/>
<path id="Moon3" d="M602.788 268.988C603.69 268.988 604.422 268.258 604.422 267.357C604.422 266.456 603.69 265.726 602.788 265.726C601.885 265.726 601.153 266.456 601.153 267.357C601.153 268.258 601.885 268.988 602.788 268.988Z" fill="white"/>
<path id="Moon2" d="M168.092 144.364C169.707 144.364 171.017 143.057 171.017 141.445C171.017 139.833 169.707 138.526 168.092 138.526C166.477 138.526 165.167 139.833 165.167 141.445C165.167 143.057 166.477 144.364 168.092 144.364Z" fill="white"/>
<g id="Star11">
<path id="Star11_2" d="M458.437 85.9614H455.834V83.3631H454.773V85.9614H452.169V87.0202H454.773V89.6129H455.834V87.0202H458.437V85.9614Z" fill="#FCBF1E"/>
</g>
<g id="Star10">
<path id="Star10_2" d="M523.814 84.8168H521.21V82.2184H520.149V84.8168H517.546V85.8756H520.149V88.4682H521.21V85.8756H523.814V84.8168Z" fill="#FCBF1E"/>
</g>
<g id="Star9">
<path id="Star9_2" d="M246.561 390.447H243.957V387.849H242.896V390.447H240.293V391.506H242.896V394.099H243.957V391.506H246.561V390.447Z" fill="#FCBF1E"/>
</g>
<g id="Star8">
<path id="Star8_2" d="M376.757 74.8089H375.57V73.6241H375.089V74.8089H373.901V75.2896H375.089V76.4743H375.57V75.2896H376.757V74.8089Z" fill="#FCBF1E"/>
</g>
<g id="Star7">
<path id="Star7_2" d="M545.933 183.551H544.746V182.366H544.264V183.551H543.077V184.032H544.264V185.216H544.746V184.032H545.933V183.551Z" fill="#FCBF1E"/>
</g>
<g id="Star6">
<path id="Star6_2" d="M446.148 254.52H444.961V253.335H444.479V254.52H443.292V255H444.479V256.185H444.961V255H446.148V254.52Z" fill="#FCBF1E"/>
</g>
<g id="Star5">
<path id="Star5_2" d="M410.856 46.1847H409.669V45H409.187V46.1847H408V46.6655H409.187V47.8502H409.669V46.6655H410.856V46.1847Z" fill="#FCBF1E"/>
</g>
<g id="Star4">
<path id="Star4_2" d="M459.602 143.48H458.414V142.296H457.933V143.48H456.746V143.961H457.933V145.146H458.414V143.961H459.602V143.48Z" fill="#FCBF1E"/>
</g>
<g id="Star3">
<path id="Star3_2" d="M241.99 89.117H240.803V87.9323H240.321V89.117H239.134V89.5978H240.321V90.7825H240.803V89.5978H241.99V89.117Z" fill="#FCBF1E"/>
</g>
<g id="Star2">
<path id="Star2_2" d="M169.732 260.243H168.545V259.058H168.063V260.243H166.876V260.724H168.063V261.908H168.545V260.724H169.732V260.243Z" fill="#FCBF1E"/>
</g>
<g id="Star1">
<path id="Star1_2" d="M185.216 211.023H184.029V209.838H183.547V211.023H182.36V211.503H183.547V212.688H184.029V211.503H185.216V211.023Z" fill="#FCBF1E"/>
</g>
<g id="Group_2" opacity="0.7">
<path id="Vector_3" opacity="0.7" d="M429.047 324.607C432.696 324.607 435.653 321.655 435.653 318.013C435.653 314.372 432.696 311.42 429.047 311.42C425.398 311.42 422.441 314.372 422.441 318.013C422.441 321.655 425.398 324.607 429.047 324.607Z" fill="url(#paint1_linear)"/>
</g>
<g id="SmallPlanet2">
<path id="Vector_4" opacity="0.2" d="M429.047 324.12C432.427 324.12 435.166 321.386 435.166 318.013C435.166 314.641 432.427 311.907 429.047 311.907C425.668 311.907 422.928 314.641 422.928 318.013C422.928 321.386 425.668 324.12 429.047 324.12Z" fill="black"/>
</g>
<g id="SmallPlanet1">
<path id="Vector_5" opacity="0.2" d="M445.523 367.829C449.302 367.829 452.365 364.772 452.365 361.001C452.365 357.23 449.302 354.173 445.523 354.173C441.745 354.173 438.682 357.23 438.682 361.001C438.682 364.772 441.745 367.829 445.523 367.829Z" fill="black"/>
</g>
<g id="LeftFlame">
<path id="Vector_6" d="M287.868 371.812H287.49C285.736 371.811 284.054 371.114 282.814 369.876C281.574 368.637 280.878 366.958 280.878 365.208V334.954H294.481V365.208C294.481 366.958 293.784 368.637 292.544 369.876C291.304 371.114 289.623 371.811 287.868 371.812Z" fill="url(#paint2_linear)"/>
</g>
<g id="RightFlame">
<path id="vector" d="M315.562 371.812H315.177C313.425 371.808 311.746 371.11 310.509 369.872C309.272 368.634 308.577 366.956 308.577 365.208V334.954H322.18V365.208C322.18 366.959 321.482 368.639 320.241 369.878C319 371.116 317.317 371.812 315.562 371.812Z" fill="url(#paint3_linear)"/>
</g>
<g id="FarLeftFlame">
<path id="Vector_7" d="M243.648 371.812H243.275C241.52 371.812 239.836 371.116 238.595 369.878C237.354 368.639 236.657 366.959 236.657 365.208V334.954H250.265V365.208C250.265 366.959 249.568 368.639 248.327 369.878C247.086 371.116 245.403 371.812 243.648 371.812Z" fill="url(#paint4_linear)"/>
</g>
<g id="FarRightFlame">
<path id="Vector_8" d="M360.27 371.812H359.909C359.039 371.814 358.177 371.644 357.372 371.313C356.568 370.981 355.837 370.495 355.222 369.882C354.606 369.268 354.117 368.54 353.784 367.738C353.451 366.936 353.279 366.076 353.279 365.207V334.954H366.882V365.207C366.882 366.958 366.186 368.637 364.946 369.876C363.706 371.114 362.024 371.811 360.27 371.812Z" fill="url(#paint5_linear)"/>
</g>
<g id="Ship">
<g id="Group_3" opacity="0.7">
<path id="Vector_9" opacity="0.7" d="M384.213 175.721C384.26 161.377 380.816 147.236 374.177 134.514C371.028 128.539 368.155 124.83 365.942 122.547C365.096 121.655 363.992 121.051 362.784 120.819C361.576 120.587 360.326 120.739 359.209 121.253C358.316 121.569 357.509 122.088 356.852 122.77C353.864 125.86 351.163 129.947 348.823 134.291C341.843 147.316 338.222 161.872 338.289 176.643V185.503H332.594V82.478C332.594 60.8898 327.754 39.5935 318.257 20.7068C313.761 11.7556 309.655 6.19255 306.506 2.77576C305.742 1.90621 304.801 1.2095 303.745 0.732194C302.689 0.254887 301.544 0.00798035 300.385 0.00798035C299.226 0.00798035 298.08 0.254887 297.024 0.732194C295.969 1.2095 295.027 1.90621 294.263 2.77576C289.996 7.40588 286.142 13.5298 282.793 20.0371C272.82 39.336 267.757 61.2447 267.757 83.4624V185.462H262.836V176.174C262.899 161.412 259.278 146.867 252.301 133.85C249.944 129.506 247.243 125.42 244.273 122.329C243.41 121.415 242.276 120.8 241.038 120.575C239.799 120.351 238.521 120.528 237.391 121.081L237.597 121.19C236.877 121.51 236.225 121.965 235.676 122.529C233.468 124.819 230.595 128.522 227.447 134.497C220.808 147.219 217.364 161.36 217.411 175.704V329.66H234.982L233.044 342.314V380.162H247.415V342.314L245.494 329.655H262.813V189.434H267.734V329.048H281.767L279.754 342.314V380.162H294.125V342.314L292.112 329.031H311.037L309.013 342.314V380.162H323.384V342.314L321.371 329.031H332.577V189.452H338.271V329.883H342.888V329.672H358.154L356.238 342.314V380.162H370.61V342.314L368.689 329.655H384.213V175.721Z" fill="url(#paint6_linear)"/>
</g>
<path id="Vector_10" d="M250.266 334.954H236.657L239.088 318.466H247.834L250.266 334.954Z" fill="#535461"/>
<g id="Group_4" opacity="0.1">
<path id="Vector_11" opacity="0.1" d="M238.412 325.013H248.511L247.834 320.406H239.088L238.412 325.013Z" fill="black"/>
</g>
<path id="Vector_12" d="M366.882 334.954H353.279L355.705 318.466H364.456L366.882 334.954Z" fill="#535461"/>
<g id="Group_5" opacity="0.1">
<path id="Vector_13" opacity="0.1" d="M355.028 325.013H365.133L364.456 320.406H355.705L355.028 325.013Z" fill="black"/>
</g>
<path id="Vector_14" d="M294.481 334.954H280.878L283.304 318.466H292.055L294.481 334.954Z" fill="#535461"/>
<g id="Group_6" opacity="0.1">
<path id="Vector_15" opacity="0.1" d="M282.627 325.013H292.732L292.055 320.406H283.304L282.627 325.013Z" fill="black"/>
</g>
<path id="Vector_16" d="M322.18 334.954H308.577L311.003 318.466H319.748L322.18 334.954Z" fill="#535461"/>
<g id="Group_7" opacity="0.1">
<path id="Vector_17" opacity="0.1" d="M310.326 325.013H320.43L319.748 320.406H311.002L310.326 325.013Z" fill="black"/>
</g>
<path id="Vector_18" d="M347.447 182.2H250.266V186.081H347.447V182.2Z" fill="#535461"/>
<path id="Vector_19" d="M362.466 120.916C361.953 120.349 361.326 119.897 360.627 119.587C359.928 119.278 359.171 119.118 358.406 119.118C357.641 119.118 356.884 119.278 356.185 119.587C355.486 119.897 354.859 120.349 354.346 120.916C351.519 123.926 348.961 127.904 346.73 132.133C340.113 144.861 336.691 159.002 336.757 173.341V322.626H379.768V172.711C379.822 158.769 376.566 145.012 370.266 132.568C367.278 126.753 364.56 123.113 362.466 120.916Z" fill="#E0E0E0"/>
<path id="Vector_20" d="M239.129 120.916C239.642 120.349 240.269 119.897 240.968 119.587C241.667 119.278 242.424 119.118 243.189 119.118C243.954 119.118 244.71 119.278 245.41 119.587C246.109 119.897 246.736 120.349 247.249 120.916C250.082 123.926 252.634 127.904 254.871 132.133C261.485 144.862 264.907 159.002 264.843 173.341V322.626H221.833V172.711C221.779 158.769 225.035 145.012 231.335 132.568C234.317 126.753 237.035 123.113 239.129 120.916Z" fill="#E0E0E0"/>
<path id="Vector_21" d="M222.079 175.893L232.287 175.945V188.502H222.079V175.893Z" fill="#535461"/>
<path id="Vector_22" d="M254.635 175.893L264.843 175.945V188.502H254.635V175.893Z" fill="#535461"/>
<path id="Vector_23" d="M336.757 175.893L346.96 175.945V188.502H336.757V175.893Z" fill="#535461"/>
<path id="Vector_24" d="M369.314 175.893L379.516 175.945V188.502H369.314V175.893Z" fill="#535461"/>
<g id="Group_8" opacity="0.1">
<path id="Vector_25" opacity="0.1" d="M254.871 131.939C252.634 127.709 250.082 123.731 247.249 120.721C246.449 119.836 245.38 119.237 244.206 119.017C243.033 118.797 241.819 118.967 240.752 119.502C241.366 119.808 241.922 120.221 242.392 120.721C245.219 123.731 247.777 127.709 250.007 131.939C256.625 144.666 260.047 158.807 259.98 173.146V322.42H264.843V173.152C264.909 158.811 261.486 144.669 254.871 131.939V131.939Z" fill="black"/>
</g>
<g id="Group_9" opacity="0.1">
<path id="Vector_26" opacity="0.1" d="M350.618 132.351C352.849 128.121 355.407 124.143 358.234 121.133C358.763 120.563 359.403 120.107 360.115 119.794C359.064 119.335 357.895 119.217 356.773 119.457C355.652 119.698 354.634 120.284 353.864 121.133C351.031 124.143 348.474 128.121 346.243 132.351C339.628 145.079 336.206 159.22 336.27 173.558V322.855H340.646V173.57C340.577 159.227 343.999 145.082 350.618 132.351V132.351Z" fill="black"/>
</g>
<path id="Vector_27" d="M306.197 3.86322C305.486 3.01949 304.599 2.34114 303.598 1.87575C302.597 1.41036 301.506 1.1692 300.402 1.1692C299.297 1.1692 298.206 1.41036 297.205 1.87575C296.204 2.34114 295.317 3.01949 294.607 3.86322C290.592 8.37315 286.922 14.3311 283.711 20.6725C274.271 39.4677 269.477 60.804 269.477 82.438V322.02H330.839V81.4765C330.839 60.4549 326.251 39.6966 317.282 21.3249C313.067 12.6084 309.185 7.18844 306.197 3.86322Z" fill="#EEEEEE"/>
<path id="Vector_28" d="M309.466 30.4764H290.059C286.575 30.4764 283.751 33.295 283.751 36.772V38.8267C283.751 42.3036 286.575 45.1223 290.059 45.1223H309.466C312.95 45.1223 315.774 42.3036 315.774 38.8267V36.772C315.774 33.295 312.95 30.4764 309.466 30.4764Z" fill="#535461"/>
<g id="Group_10" opacity="0.1">
<path id="Vector_29" opacity="0.1" d="M330.547 90.628H269.81V92.9802H330.547V90.628Z" fill="black"/>
</g>
</g>
<g id="Planet2">
<path id="Vector_30" d="M436.439 178.183C434.847 176.095 432.854 174.344 430.578 173.032V173.032C427.963 171.527 425.036 170.642 422.024 170.446C419.011 170.25 415.994 170.749 413.205 171.902C410.416 173.056 407.931 174.834 405.941 177.099C403.95 179.365 402.509 182.057 401.727 184.967C400.946 187.877 400.846 190.927 401.434 193.882C402.022 196.837 403.284 199.618 405.121 202.008C406.958 204.399 409.321 206.336 412.028 207.67C414.735 209.004 417.713 209.699 420.732 209.701C421.15 209.701 421.569 209.701 421.976 209.655C425.524 209.431 428.945 208.253 431.876 206.245C434.807 204.237 437.138 201.474 438.622 198.25C440.106 195.026 440.687 191.461 440.304 187.934C439.92 184.406 438.587 181.049 436.445 178.217L436.439 178.183Z" fill="url(#paint7_linear)"/>
<path id="Vector_31" opacity="0.2" d="M439.335 190.018C439.334 194.74 437.531 199.285 434.293 202.727C431.054 206.17 426.624 208.252 421.902 208.55C421.517 208.55 421.122 208.59 420.726 208.59C417.87 208.592 415.051 207.938 412.489 206.678C409.927 205.418 407.689 203.587 405.95 201.326C404.21 199.065 403.015 196.435 402.458 193.639C401.9 190.843 401.995 187.957 402.734 185.203C403.474 182.45 404.838 179.903 406.722 177.761C408.606 175.618 410.958 173.936 413.597 172.846C416.237 171.756 419.092 171.287 421.942 171.475C424.792 171.663 427.561 172.503 430.033 173.93V173.93C432.189 175.178 434.072 176.844 435.573 178.829V178.829C438.019 182.049 439.34 185.979 439.335 190.018Z" fill="black"/>
<path id="Vector_32" opacity="0.1" d="M416.144 178.234C415.182 178.647 414.254 179.135 413.368 179.693C412.777 180.016 412.269 180.47 411.883 181.021C411.692 181.299 411.586 181.626 411.58 181.963C411.574 182.3 411.667 182.631 411.849 182.916C412.302 183.534 413.173 183.625 413.942 183.671C414.749 183.774 415.569 183.692 416.339 183.431C416.859 183.174 417.332 182.832 417.738 182.418L419.338 180.97C419.912 180.466 420.485 179.774 420.261 179.064C420.129 178.81 419.936 178.594 419.698 178.434C419.461 178.274 419.187 178.176 418.902 178.148C417.523 177.88 416.093 178.131 414.888 178.852" fill="black"/>
<g id="Group_11" opacity="0.1">
<path id="Vector_33" opacity="0.1" d="M409.463 198.328C410.004 198.328 410.443 197.89 410.443 197.35C410.443 196.809 410.004 196.371 409.463 196.371C408.921 196.371 408.482 196.809 408.482 197.35C408.482 197.89 408.921 198.328 409.463 198.328Z" fill="black"/>
</g>
<g id="Group_12" opacity="0.1">
<path id="Vector_34" opacity="0.1" d="M429.374 194.74C431.357 194.74 432.964 193.136 432.964 191.157C432.964 189.178 431.357 187.574 429.374 187.574C427.391 187.574 425.784 189.178 425.784 191.157C425.784 193.136 427.391 194.74 429.374 194.74Z" fill="black"/>
</g>
<g id="Group_13" opacity="0.1">
<path id="Vector_35" opacity="0.1" d="M435.608 178.829C435.597 179.766 435.317 180.68 434.801 181.462C434.285 182.245 433.554 182.863 432.696 183.243C431.838 183.622 430.889 183.748 429.962 183.605C429.034 183.462 428.167 183.055 427.464 182.435C426.761 181.814 426.252 181.004 425.997 180.103C425.742 179.201 425.752 178.246 426.026 177.35C426.3 176.453 426.826 175.655 427.541 175.049C428.257 174.442 429.132 174.054 430.062 173.93V173.93C432.22 175.178 434.105 176.843 435.608 178.829Z" fill="black"/>
</g>
<g id="Group_14" opacity="0.1">
<path id="Vector_36" opacity="0.1" d="M435.94 200.709C434.339 202.983 432.246 204.869 429.816 206.226C427.386 207.584 424.681 208.378 421.902 208.55C421.902 208.293 421.867 208.035 421.867 207.772C421.869 206.142 422.324 204.545 423.181 203.158C424.039 201.771 425.266 200.648 426.725 199.916C428.184 199.184 429.818 198.87 431.445 199.01C433.072 199.15 434.628 199.739 435.94 200.709V200.709Z" fill="black"/>
</g>
</g>
<g id="Planet1">
<path id="Vector_37" d="M182.228 284.206C181.118 282.741 179.726 281.511 178.134 280.589V280.589C176.306 279.519 174.256 278.885 172.142 278.735C170.029 278.585 167.91 278.925 165.949 279.727C163.989 280.529 162.24 281.771 160.84 283.358C159.44 284.945 158.425 286.833 157.876 288.875C157.327 290.917 157.257 293.058 157.673 295.132C158.089 297.205 158.978 299.155 160.273 300.828C161.567 302.502 163.232 303.855 165.136 304.782C167.04 305.709 169.133 306.185 171.252 306.172C171.544 306.172 171.825 306.172 172.123 306.143C174.594 305.977 176.975 305.149 179.013 303.746C181.052 302.343 182.674 300.416 183.707 298.17C184.74 295.924 185.147 293.441 184.885 290.984C184.623 288.526 183.701 286.185 182.217 284.206H182.228Z" fill="url(#paint8_linear)"/>
<path id="Vector_38" opacity="0.2" d="M184.247 292.465C184.246 295.759 182.988 298.93 180.729 301.331C178.469 303.733 175.378 305.186 172.083 305.394C171.814 305.394 171.51 305.394 171.263 305.394C169.272 305.393 167.308 304.936 165.522 304.056C163.736 303.177 162.177 301.9 160.965 300.323C159.753 298.746 158.921 296.912 158.532 294.963C158.144 293.014 158.21 291.002 158.725 289.083C159.241 287.163 160.191 285.388 161.504 283.893C162.817 282.399 164.457 281.226 166.296 280.466C168.136 279.705 170.126 279.377 172.113 279.506C174.1 279.636 176.03 280.22 177.755 281.213V281.213C179.261 282.087 180.575 283.255 181.62 284.647C183.33 286.895 184.253 289.642 184.247 292.465V292.465Z" fill="black"/>
<path id="Vector_39" opacity="0.1" d="M168.063 284.246C167.393 284.531 166.746 284.87 166.131 285.259C165.72 285.488 165.366 285.804 165.093 286.186C164.965 286.383 164.897 286.613 164.897 286.847C164.897 287.082 164.965 287.311 165.093 287.508C165.283 287.696 165.512 287.84 165.763 287.931C166.015 288.022 166.283 288.057 166.549 288.035C167.113 288.107 167.686 288.051 168.224 287.869C168.588 287.689 168.92 287.449 169.204 287.159L170.317 286.152C170.707 285.797 171.131 285.316 170.959 284.824C170.872 284.644 170.738 284.49 170.572 284.378C170.406 284.265 170.213 284.198 170.013 284.183C169.053 283.996 168.058 284.171 167.22 284.675" fill="black"/>
<g id="Group_15" opacity="0.1">
<path id="Vector_40" opacity="0.1" d="M163.401 298.257C163.778 298.257 164.083 297.952 164.083 297.576C164.083 297.2 163.778 296.895 163.401 296.895C163.024 296.895 162.718 297.2 162.718 297.576C162.718 297.952 163.024 298.257 163.401 298.257Z" fill="black"/>
</g>
<g id="Group_16" opacity="0.1">
<path id="Vector_41" opacity="0.1" d="M177.296 295.761C178.68 295.761 179.802 294.642 179.802 293.26C179.802 291.879 178.68 290.759 177.296 290.759C175.912 290.759 174.79 291.879 174.79 293.26C174.79 294.642 175.912 295.761 177.296 295.761Z" fill="black"/>
</g>
<g id="Group_17" opacity="0.1">
<path id="Vector_42" opacity="0.1" d="M181.626 284.658C181.621 285.318 181.425 285.962 181.063 286.514C180.701 287.066 180.187 287.501 179.582 287.769C178.978 288.037 178.31 288.126 177.657 288.024C177.003 287.923 176.393 287.636 175.899 287.198C175.405 286.76 175.048 286.189 174.871 285.553C174.693 284.918 174.703 284.244 174.899 283.614C175.094 282.984 175.468 282.424 175.974 282C176.481 281.576 177.099 281.307 177.755 281.224C179.263 282.098 180.579 283.266 181.626 284.658V284.658Z" fill="black"/>
</g>
<g id="Group_18" opacity="0.1">
<path id="Vector_43" opacity="0.1" d="M181.878 299.922C180.761 301.509 179.301 302.825 177.605 303.772C175.91 304.719 174.023 305.273 172.083 305.394C172.083 305.216 172.083 305.033 172.083 304.821C172.084 303.684 172.402 302.57 173 301.602C173.598 300.634 174.454 299.851 175.472 299.341C176.49 298.83 177.63 298.611 178.765 298.709C179.9 298.806 180.986 299.216 181.901 299.894L181.878 299.922Z" fill="black"/>
</g>
</g>
<path id="Moon1" d="M547.613 246.141C548.196 246.141 548.669 245.669 548.669 245.088C548.669 244.506 548.196 244.034 547.613 244.034C547.031 244.034 546.558 244.506 546.558 245.088C546.558 245.669 547.031 246.141 547.613 246.141Z" fill="white"/>
</g>
</g>
<defs>
<linearGradient id="paint0_linear" x1="159.117" y1="398.975" x2="159.117" y2="383.184" gradientUnits="userSpaceOnUse">
<stop stop-color="#808080" stop-opacity="0.25"/>
<stop offset="0.54" stop-color="#808080" stop-opacity="0.12"/>
<stop offset="1" stop-color="#808080" stop-opacity="0.1"/>
</linearGradient>
<linearGradient id="paint1_linear" x1="10307.7" y1="7790.22" x2="10307.7" y2="7486.54" gradientUnits="userSpaceOnUse">
<stop stop-color="#808080" stop-opacity="0.25"/>
<stop offset="0.54" stop-color="#808080" stop-opacity="0.12"/>
<stop offset="1" stop-color="#808080" stop-opacity="0.1"/>
</linearGradient>
<linearGradient id="paint2_linear" x1="287.682" y1="334.954" x2="287.682" y2="371.812" gradientUnits="userSpaceOnUse">
<stop stop-color="#E9E7E7"/>
<stop offset="0.31" stop-color="#FCCC63"/>
<stop offset="0.77" stop-color="#F55F44"/>
</linearGradient>
<linearGradient id="paint3_linear" x1="315.381" y1="334.954" x2="315.381" y2="371.812" gradientUnits="userSpaceOnUse">
<stop stop-color="#E9E7E7"/>
<stop offset="0.31" stop-color="#FCCC63"/>
<stop offset="0.77" stop-color="#F55F44"/>
</linearGradient>
<linearGradient id="paint4_linear" x1="243.464" y1="334.954" x2="243.464" y2="371.812" gradientUnits="userSpaceOnUse">
<stop stop-color="#E9E7E7"/>
<stop offset="0.31" stop-color="#FCCC63"/>
<stop offset="0.77" stop-color="#F55F44"/>
</linearGradient>
<linearGradient id="paint5_linear" x1="360.083" y1="334.954" x2="360.083" y2="371.812" gradientUnits="userSpaceOnUse">
<stop stop-color="#E9E7E7"/>
<stop offset="0.31" stop-color="#FCCC63"/>
<stop offset="0.77" stop-color="#F55F44"/>
</linearGradient>
<linearGradient id="paint6_linear" x1="93114.8" y1="268830" x2="93114.8" y2="16304.8" gradientUnits="userSpaceOnUse">
<stop stop-color="#808080" stop-opacity="0.25"/>
<stop offset="0.54" stop-color="#808080" stop-opacity="0.12"/>
<stop offset="1" stop-color="#808080" stop-opacity="0.1"/>
</linearGradient>
<linearGradient id="paint7_linear" x1="30554.4" y1="16251.5" x2="30554.4" y2="13553.4" gradientUnits="userSpaceOnUse">
<stop stop-color="#808080" stop-opacity="0.25"/>
<stop offset="0.54" stop-color="#808080" stop-opacity="0.12"/>
<stop offset="1" stop-color="#808080" stop-opacity="0.1"/>
</linearGradient>
<linearGradient id="paint8_linear" x1="9280.22" y1="16153.2" x2="9280.22" y2="14837" gradientUnits="userSpaceOnUse">
<stop stop-color="#808080" stop-opacity="0.25"/>
<stop offset="0.54" stop-color="#808080" stop-opacity="0.12"/>
<stop offset="1" stop-color="#808080" stop-opacity="0.1"/>
</linearGradient>
<clipPath id="clip0">
<rect width="651" height="466" fill="white"/>
</clipPath>
</defs>
</svg>
